<!DOCTYPE svg PUBLIC "-//W3C//DTD SVG 1.1//EN" "http://www.w3.org/Graphics/SVG/1.1/DTD/svg11.dtd">
<!-- Uploaded to: SVG Repo, www.svgrepo.com, Transformed by: SVG Repo Mixer Tools -->
<svg height="800px" width="800px" version="1.1" id="Layer_1" xmlns="http://www.w3.org/2000/svg" xmlns:xlink="http://www.w3.org/1999/xlink" viewBox="0 0 511.992 511.992" xml:space="preserve" fill="#000000">
<g id="SVGRepo_bgCarrier" stroke-width="0"/>
<g id="SVGRepo_tracerCarrier" stroke-linecap="round" stroke-linejoin="round"/>
<g id="SVGRepo_iconCarrier"> <path style="fill:#333333;" d="M501.336,0H223.992c-5.875,0-10.656,4.781-10.656,10.656c0,5.906,4.781,10.688,10.656,10.688h251.594 L3.117,493.781c-4.156,4.172-4.156,10.938,0,15.094c4.188,4.156,10.938,4.156,15.094,0L490.68,36.406V288 c0,5.891,4.75,10.656,10.656,10.656c5.875,0,10.656-4.766,10.656-10.656V10.656C511.992,4.781,507.211,0,501.336,0z"/> <path style="fill:#333333;" d="M305.242,433.062L78.961,206.781c-1.938-1.938-4.594-3.125-7.562-3.125 c-5.875,0-10.656,4.766-10.656,10.656c0,2.938,1.188,5.609,3.125,7.531l226.281,226.281c1.938,1.938,4.594,3.125,7.531,3.125 c5.906,0,10.656-4.781,10.656-10.656C308.336,437.641,307.148,434.969,305.242,433.062z"/> </g>
</svg>